mtllib prop_cabinet_03.mtl
# vertices
v -20 6 -13
v -20 6 11
v -20 114 11
v -20 114 -13
v 20 114 11
v 20 6 11
v 20 6 -13
v 20 114 -13
v 20 6 -13
v 20 6 13
v 20 116 13
v 20 116 -13
v 24 116 13
v 24 6 13
v 24 6 -13
v 24 116 -13
v -24 6 -13
v -24 6 13
v -24 116 13
v -24 116 -13
v -20 116 13
v -20 6 13
v -20 6 -13
v -20 116 -13
v -24 0 -13
v -24 0 -9
v -24 6 -9
v -24 6 -13
v -20 6 -9
v -20 0 -9
v -20 0 -13
v -20 6 -13
v -24 0 9
v -24 0 13
v -24 6 13
v -24 6 9
v -20 6 13
v -20 0 13
v -20 0 9
v -20 6 9
v 20 0 -13
v 20 0 -9
v 20 6 -9
v 20 6 -13
v 24 6 -9
v 24 0 -9
v 24 0 -13
v 24 6 -13
v 20 0 9
v 20 0 13
v 20 6 13
v 20 6 9
v 24 6 13
v 24 0 13
v 24 0 9
v 24 6 9

# texture coordinates
vt 0.5 0.1875
vt -0.25 0.1875
vt -0.25 3.5625
vt 0.5 3.5625
vt 0.890625 -0.68421054
vt 0.890625 -0.15789473
vt 0.046875 -0.15789473
vt 0.046875 -0.68421054
vt 0.53125 -0.34375
vt -0.71875 -0.34375
vt -0.71875 0.40625
vt 0.53125 0.40625
vt 0.8125 0.5
vt -0.4375 0.5
vt -0.4375 -0.25
vt 0.8125 -0.25
vt 0.8125 0.1875
vt -0.4375 0.1875
vt -0.4375 3.5625
vt 0.8125 3.5625
vt 0.3125 0.1875
vt -0.5 0.1875
vt -0.5 3.625
vt 0.3125 3.625
vt 6 1
vt 5 1
vt 5 -0
vt 6 -0
vt 0.65625 -0.40625
vt 0.53125 -0.40625
vt 0.65625 0.40625
vt 1 0.3125
vt 0.875 0.3125
vt 0.875 -0.5
vt 1 -0.5
vt 1 0.1875
vt 0.875 0.1875
vt 0.875 3.625
vt 1 3.625
vt -5 1
vt -6 1
vt -6 -0
vt -5 -0
vt -0.71875 -0.40625
vt -0.84375 -0.40625
vt -0.84375 0.40625
vt 0 0.3125
vt -0.125 0.3125
vt -0.125 -0.5
vt 0 -0.5
vt 0 0.1875
vt -0.125 0.1875
vt -0.125 3.625
vt 0 3.625
vt 0.44444445 -0
vt 0.33333334 -0
vt 0.33333334 0.75
vt 0.44444445 0.75
vt -0.22222222 0.75
vt -0.33333334 0.75
vt -0.33333334 -0
vt -0.22222222 -0
vt -0.9375 0.6875
vt -1.0625 0.6875
vt -1.0625 0.8125
vt -0.9375 0.8125
vt -0.46875 0.40625
vt -0.53125 0.40625
vt -0.53125 0.34375
vt -0.46875 0.34375
vt -0.5555556 -0
vt -0.6666667 -0
vt -0.6666667 0.75
vt -0.5555556 0.75
vt 0.7777778 0.75
vt 0.6666667 0.75
vt 0.6666667 -0
vt 0.7777778 -0
vt 1.0625 0.6875
vt 0.9375 0.6875
vt 0.9375 0.8125
vt 1.0625 0.8125
vt 0.46875 0.40625
vt 0.46875 0.34375
vt 0.53125 0.34375

# normals
vn -1 0 -0
vn 0 0 1
vn 0 -1 -0
vn 0 1 -0
vn 0 0 -1
vn 1 0 -0

o entity1_brush0
usemtl __TB_empty
f  1/1/1  2/2/1  3/3/1  4/4/1
usemtl chunksTextures/prop_desk02_table
f  5/5/2  3/6/2  2/7/2  6/8/2
usemtl chunksTextures/prop_desk02_leg
f  6/9/3  2/10/3  1/11/3  7/12/3
usemtl chunksTextures/prop_library_back
f  8/13/4  4/14/4  3/15/4  5/16/4
usemtl chunksTextures/prop_library_back
f  7/17/5  1/18/5  4/19/5  8/20/5
usemtl __TB_empty
f  8/4/6  5/3/6  6/2/6  7/1/6

o entity1_brush1
usemtl chunksTextures/prop_desk02_leg
f  9/21/1  10/22/1  11/23/1  12/24/1
usemtl chunksTextures/prop_library_front
f  13/25/2  11/26/2  10/27/2  14/28/2
usemtl chunksTextures/prop_desk02_leg
f  14/29/3  10/30/3  9/12/3  15/31/3
usemtl chunksTextures/prop_desk02_leg
f  16/32/4  12/33/4  11/34/4  13/35/4
usemtl chunksTextures/prop_desk02_leg
f  15/36/5  9/37/5  12/38/5  16/39/5
usemtl chunksTextures/prop_desk02_leg
f  16/24/6  13/23/6  14/22/6  15/21/6

o entity1_brush2
usemtl chunksTextures/prop_desk02_leg
f  17/21/1  18/22/1  19/23/1  20/24/1
usemtl chunksTextures/prop_library_front
f  21/40/2  19/41/2  18/42/2  22/43/2
usemtl chunksTextures/prop_desk02_leg
f  22/44/3  18/45/3  17/46/3  23/11/3
usemtl chunksTextures/prop_desk02_leg
f  24/47/4  20/48/4  19/49/4  21/50/4
usemtl chunksTextures/prop_desk02_leg
f  23/51/5  17/52/5  20/53/5  24/54/5
usemtl chunksTextures/prop_desk02_leg
f  24/24/6  21/23/6  22/22/6  23/21/6

o entity1_brush3
usemtl chunksTextures/prop_desk02_base3
f  25/55/1  26/56/1  27/57/1  28/58/1
usemtl chunksTextures/prop_desk02_base3
f  29/59/2  27/60/2  26/61/2  30/62/2
usemtl chunksTextures/color_05
f  30/63/3  26/64/3  25/65/3  31/66/3
usemtl chunksTextures/dev_nodraw
f  32/67/4  28/68/4  27/69/4  29/70/4
usemtl chunksTextures/prop_desk02_base3
f  31/62/5  25/61/5  28/60/5  32/59/5
usemtl chunksTextures/prop_desk02_base3
f  32/58/6  29/57/6  30/56/6  31/55/6

o entity1_brush4
usemtl chunksTextures/prop_desk02_base3
f  33/71/1  34/72/1  35/73/1  36/74/1
usemtl chunksTextures/prop_desk02_base3
f  37/59/2  35/60/2  34/61/2  38/62/2
usemtl chunksTextures/color_05
f  38/63/3  34/64/3  33/65/3  39/66/3
usemtl chunksTextures/dev_nodraw
f  40/67/4  36/68/4  35/69/4  37/70/4
usemtl chunksTextures/prop_desk02_base3
f  39/62/5  33/61/5  36/60/5  40/59/5
usemtl chunksTextures/prop_desk02_base3
f  40/74/6  37/73/6  38/72/6  39/71/6

o entity1_brush5
usemtl chunksTextures/prop_desk02_base3
f  41/55/1  42/56/1  43/57/1  44/58/1
usemtl chunksTextures/prop_desk02_base3
f  45/75/2  43/76/2  42/77/2  46/78/2
usemtl chunksTextures/color_05
f  46/79/3  42/80/3  41/81/3  47/82/3
usemtl chunksTextures/dev_nodraw
f  48/12/4  44/83/4  43/84/4  45/85/4
usemtl chunksTextures/prop_desk02_base3
f  47/78/5  41/77/5  44/76/5  48/75/5
usemtl chunksTextures/prop_desk02_base3
f  48/58/6  45/57/6  46/56/6  47/55/6

o entity1_brush6
usemtl chunksTextures/prop_desk02_base3
f  49/71/1  50/72/1  51/73/1  52/74/1
usemtl chunksTextures/prop_desk02_base3
f  53/75/2  51/76/2  50/77/2  54/78/2
usemtl chunksTextures/color_05
f  54/79/3  50/80/3  49/81/3  55/82/3
usemtl chunksTextures/dev_nodraw
f  56/12/4  52/83/4  51/84/4  53/85/4
usemtl chunksTextures/prop_desk02_base3
f  55/78/5  49/77/5  52/76/5  56/75/5
usemtl chunksTextures/prop_desk02_base3
f  56/74/6  53/73/6  54/72/6  55/71/6

