mtllib prop_partition_01.mtl
# vertices
v -2 0 -80
v -2 0 -76
v -2 6 -76
v -2 6 -80
v 2 6 -76
v 2 0 -76
v 2 0 -80
v 2 6 -80
v 108 0 -80
v 108 0 -76
v 108 6 -76
v 108 6 -80
v 112 6 -76
v 112 0 -76
v 112 0 -80
v 112 6 -80
v -108 10 -80
v -108 10 -76
v -108 80 -76
v -108 80 -80
v 112 80 -76
v 112 10 -76
v 112 10 -80
v 112 80 -80
v -108 6 -80
v -108 6 -76
v -108 10 -76
v -108 10 -80
v 112 10 -76
v 112 6 -76
v 112 6 -80
v 112 10 -80
v -112 0 76
v -112 0 80
v -112 6 80
v -112 6 76
v -108 6 80
v -108 0 80
v -108 0 76
v -108 6 76
v -112 6 -80
v -112 6 80
v -112 10 80
v -112 10 -80
v -108 10 80
v -108 6 80
v -108 6 -80
v -108 10 -80
v -112 10 -80
v -112 10 80
v -112 80 80
v -112 80 -80
v -108 80 80
v -108 10 80
v -108 10 -80
v -108 80 -80
v -112 0 -2
v -112 0 2
v -112 6 2
v -112 6 -2
v -108 6 2
v -108 0 2
v -108 0 -2
v -108 6 -2
v -112 0 -80
v -112 0 -76
v -112 6 -76
v -112 6 -80
v -108 6 -76
v -108 0 -76
v -108 0 -80
v -108 6 -80

# texture coordinates
vt 1.4444444 -0
vt 1.3333334 -0
vt 1.3333334 0.75
vt 1.4444444 0.75
vt 0.7777778 0.75
vt 0.6666667 0.75
vt 0.6666667 -0
vt 0.7777778 -0
vt 1.0625 0.6875
vt 0.9375 0.6875
vt 0.9375 0.8125
vt 1.0625 0.8125
vt 0.53125 0.40625
vt 0.46875 0.40625
vt 0.46875 0.34375
vt 0.53125 0.34375
vt 3.7777777 0.75
vt 3.6666667 0.75
vt 3.6666667 -0
vt 3.7777777 -0
vt 5.0625 0.6875
vt 4.9375 0.6875
vt 4.9375 0.8125
vt 5.0625 0.8125
vt 2.53125 0.40625
vt 2.46875 0.40625
vt 2.46875 0.34375
vt 2.53125 0.34375
vt 0.5 0.15625
vt 0.4375 0.15625
vt 0.4375 1.25
vt 0.5 1.25
vt 4.125 2.5
vt -2.75 2.5
vt -2.75 0.3125
vt 4.125 0.3125
vt 2 0.4375
vt -1.4375 0.4375
vt -1.4375 0.5
vt 2 0.5
vt 4.125 2
vt -2.75 2
vt -2.75 1.875
vt 4.125 1.875
vt 2.125 2.5
vt 2 2.5
vt 2 0.3125
vt 2.125 0.3125
vt 0.5 0.09375
vt 0.4375 0.09375
vt 0.7777778 2.125
vt 0.39583334 2.125
vt 0.39583334 1.625
vt 0.7777778 1.625
vt 0.7777778 9.375
vt 0.39583334 9.375
vt 0.39583334 9.875
vt 0.7777778 9.875
vt 0.055555556 2.125
vt 0.048611112 2.125
vt 0.048611112 1.625
vt 0.055555556 1.625
vt -2.5555556 -0
vt -2.6666667 -0
vt -2.6666667 0.75
vt -2.5555556 0.75
vt -2.2222223 0.75
vt -2.3333333 0.75
vt -2.3333333 -0
vt -2.2222223 -0
vt -2.9375 -3.3125
vt -3.0625 -3.3125
vt -3.0625 -3.1875
vt -2.9375 -3.1875
vt -1.46875 -1.59375
vt -1.53125 -1.59375
vt -1.53125 -1.65625
vt -1.46875 -1.65625
vt 0.33333334 1.625
vt 0.33333334 2.125
vt -0.39583334 2.125
vt -0.3888889 2.125
vt -0.3888889 1.625
vt -0.39583334 1.625
vt 0.055555556 13.375
vt 0.055555556 13.875
vt 0.33333334 13.875
vt 0.33333334 13.375
vt 0.8125 1.4375
vt 0.8125 1.5
vt -1.6875 1.5
vt -1.6875 1.4375
vt -2.875 0.3125
vt -2.875 2.5
vt -2.875 2
vt -2.875 -3
vt -2.75 -3
vt -0.5555556 -0
vt -0.6666667 -0
vt -0.6666667 0.75
vt -0.5555556 0.75
vt -2.9375 -1.3125
vt -3.0625 -1.3125
vt -3.0625 -1.1875
vt -2.9375 -1.1875
vt -1.46875 -0.59375
vt -1.53125 -0.59375
vt -1.53125 -0.65625
vt -1.46875 -0.65625
vt -2.9375 0.6875
vt -3.0625 0.6875
vt -3.0625 0.8125
vt -2.9375 0.8125
vt -1.46875 0.40625
vt -1.53125 0.40625
vt -1.53125 0.34375
vt -1.46875 0.34375

# normals
vn -1 0 -0
vn 0 0 1
vn 0 -1 -0
vn 0 1 -0
vn 0 0 -1
vn 1 0 -0

o entity1_brush0
usemtl chunksTextures/prop_desk02_base3
f  1/1/1  2/2/1  3/3/1  4/4/1
usemtl chunksTextures/prop_desk02_base3
f  5/5/2  3/6/2  2/7/2  6/8/2
usemtl chunksTextures/color_05
f  6/9/3  2/10/3  1/11/3  7/12/3
usemtl chunksTextures/dev_nodraw
f  8/13/4  4/14/4  3/15/4  5/16/4
usemtl chunksTextures/prop_desk02_base3
f  7/8/5  1/7/5  4/6/5  8/5/5
usemtl chunksTextures/prop_desk02_base3
f  8/4/6  5/3/6  6/2/6  7/1/6

o entity1_brush1
usemtl chunksTextures/prop_desk02_base3
f  9/1/1  10/2/1  11/3/1  12/4/1
usemtl chunksTextures/prop_desk02_base3
f  13/17/2  11/18/2  10/19/2  14/20/2
usemtl chunksTextures/color_05
f  14/21/3  10/22/3  9/23/3  15/24/3
usemtl chunksTextures/dev_nodraw
f  16/25/4  12/26/4  11/27/4  13/28/4
usemtl chunksTextures/prop_desk02_base3
f  15/20/5  9/19/5  12/18/5  16/17/5
usemtl chunksTextures/prop_desk02_base3
f  16/4/6  13/3/6  14/2/6  15/1/6

o entity1_brush2
usemtl chunksTextures/dev_nodraw
f  17/29/1  18/30/1  19/31/1  20/32/1
usemtl chunksTextures/prop_library_back
f  21/33/2  19/34/2  18/35/2  22/36/2
usemtl chunksTextures/dev_nodraw
f  22/37/3  18/38/3  17/39/3  23/40/3
usemtl chunksTextures/prop_library_back
f  24/41/4  20/42/4  19/43/4  21/44/4
usemtl chunksTextures/prop_library_back
f  23/36/5  17/35/5  20/34/5  24/33/5
usemtl chunksTextures/prop_library_back
f  24/45/6  21/46/6  22/47/6  23/48/6

o entity1_brush3
usemtl chunksTextures/dev_nodraw
f  25/49/1  26/50/1  27/30/1  28/29/1
usemtl chunksTextures/prop_desk02_base
f  29/51/2  27/52/2  26/53/2  30/54/2
usemtl chunksTextures/prop_desk02_base
f  30/55/3  26/56/3  25/57/3  31/58/3
usemtl chunksTextures/dev_nodraw
f  32/40/4  28/39/4  27/38/4  29/37/4
usemtl chunksTextures/prop_desk02_base
f  31/54/5  25/53/5  28/52/5  32/51/5
usemtl chunksTextures/prop_desk02_base
f  32/59/6  29/60/6  30/61/6  31/62/6

o entity1_brush4
usemtl chunksTextures/prop_desk02_base3
f  33/63/1  34/64/1  35/65/1  36/66/1
usemtl chunksTextures/prop_desk02_base3
f  37/67/2  35/68/2  34/69/2  38/70/2
usemtl chunksTextures/color_05
f  38/71/3  34/72/3  33/73/3  39/74/3
usemtl chunksTextures/dev_nodraw
f  40/75/4  36/76/4  35/77/4  37/78/4
usemtl chunksTextures/prop_desk02_base3
f  39/70/5  33/69/5  36/68/5  40/67/5
usemtl chunksTextures/prop_desk02_base3
f  40/66/6  37/65/6  38/64/6  39/63/6

o entity1_brush5
usemtl chunksTextures/prop_desk02_base
f  41/79/1  42/62/1  43/59/1  44/80/1
usemtl chunksTextures/prop_desk02_base
f  45/81/2  43/82/2  42/83/2  46/84/2
usemtl chunksTextures/prop_desk02_base
f  46/85/3  42/86/3  41/87/3  47/88/3
usemtl chunksTextures/dev_nodraw
f  48/89/4  44/90/4  43/91/4  45/92/4
usemtl chunksTextures/prop_desk02_base
f  47/84/5  41/83/5  44/82/5  48/81/5
usemtl chunksTextures/prop_desk02_base
f  48/80/6  45/59/6  46/62/6  47/79/6

o entity1_brush6
usemtl chunksTextures/prop_library_back
f  49/48/1  50/93/1  51/94/1  52/45/1
usemtl chunksTextures/prop_library_back
f  53/34/2  51/94/2  50/93/2  54/35/2
usemtl chunksTextures/dev_nodraw
f  54/92/3  50/91/3  49/90/3  55/89/3
usemtl chunksTextures/prop_library_back
f  56/42/4  52/95/4  51/96/4  53/97/4
usemtl chunksTextures/prop_library_back
f  55/35/5  49/93/5  52/94/5  56/34/5
usemtl chunksTextures/prop_library_back
f  56/45/6  53/94/6  54/93/6  55/48/6

o entity1_brush7
usemtl chunksTextures/prop_desk02_base3
f  57/98/1  58/99/1  59/100/1  60/101/1
usemtl chunksTextures/prop_desk02_base3
f  61/67/2  59/68/2  58/69/2  62/70/2
usemtl chunksTextures/color_05
f  62/102/3  58/103/3  57/104/3  63/105/3
usemtl chunksTextures/dev_nodraw
f  64/106/4  60/107/4  59/108/4  61/109/4
usemtl chunksTextures/prop_desk02_base3
f  63/70/5  57/69/5  60/68/5  64/67/5
usemtl chunksTextures/prop_desk02_base3
f  64/101/6  61/100/6  62/99/6  63/98/6

o entity1_brush8
usemtl chunksTextures/prop_desk02_base3
f  65/1/1  66/2/1  67/3/1  68/4/1
usemtl chunksTextures/prop_desk02_base3
f  69/67/2  67/68/2  66/69/2  70/70/2
usemtl chunksTextures/color_05
f  70/110/3  66/111/3  65/112/3  71/113/3
usemtl chunksTextures/dev_nodraw
f  72/114/4  68/115/4  67/116/4  69/117/4
usemtl chunksTextures/prop_desk02_base3
f  71/70/5  65/69/5  68/68/5  72/67/5
usemtl chunksTextures/prop_desk02_base3
f  72/4/6  69/3/6  70/2/6  71/1/6

