mtllib prop_cabinet_02.mtl
# vertices
v -54 6 -16
v -54 6 15
v -54 66 15
v -54 66 -16
v 54 66 15
v 54 6 15
v 54 6 -16
v 54 66 -16
v 54 6 -16
v 54 6 16
v 54 66 16
v 54 66 -16
v 56 66 16
v 56 6 16
v 56 6 -16
v 56 66 -16
v -56 66 -16
v -56 66 16
v -56 68 16
v -56 68 -16
v 56 68 16
v 56 66 16
v 56 66 -16
v 56 68 -16
v -56 0 -16
v -56 0 16
v -56 6 16
v -56 6 -16
v 56 6 16
v 56 0 16
v 56 0 -16
v 56 6 -16
v -56 6 -16
v -56 6 16
v -56 66 16
v -56 66 -16
v -54 66 16
v -54 6 16
v -54 6 -16
v -54 66 -16

# texture coordinates
vt -0.125 0.09375
vt -0.609375 0.09375
vt -0.609375 1.03125
vt -0.125 1.03125
vt 1 0.96666664
vt -1 0.96666664
vt -1 -0.033333335
vt 1 -0.033333335
vt 1.21875 -0.609375
vt -0.46875 -0.609375
vt -0.46875 -0.125
vt 1.21875 -0.125
vt 2.4375 0.1875
vt -0.9375 0.1875
vt -0.9375 2.0625
vt 2.4375 2.0625
vt -0.25 0.1875
vt -1.25 0.1875
vt -1.25 2.0625
vt -0.25 2.0625
vt 2.5 2.0625
vt 2.5 0.1875
vt 1.25 -0.625
vt 1.21875 -0.625
vt 1.25 -0.125
vt 0.6388889 10.833333
vt 0.5277778 10.833333
vt 0.5277778 11.166667
vt 0.6388889 11.166667
vt 0.11111111 11.166667
vt -0.2777778 11.166667
vt -0.2777778 10.833333
vt 0.11111111 10.833333
vt 2.5 -1.25
vt -1 -1.25
vt -1 -0.25
vt 2.5 -0.25
vt 0.11111111 -0
vt -0.7777778 -0
vt -0.7777778 1
vt 0.11111111 1
vt 2.3333333 1
vt 2.3333333 -0
vt 1 -0.5
vt -2.5 -0.5
vt -2.5 0.5
vt 1 0.5
vt -1 2.0625
vt -1 0.1875
vt -0.46875 -0.625
vt -0.5 -0.625
vt -0.5 -0.125

# normals
vn -1 0 -0
vn 0 0 1
vn 0 -1 -0
vn 0 1 -0
vn 0 0 -1
vn 1 0 -0

o entity1_brush0
usemtl chunksTextures/dev_nodraw
f  1/1/1  2/2/1  3/3/1  4/4/1
usemtl chunksTextures/obj_cabinet_02_shelf
f  5/5/2  3/6/2  2/7/2  6/8/2
usemtl chunksTextures/dev_nodraw
f  6/9/3  2/10/3  1/11/3  7/12/3
usemtl chunksTextures/dev_nodraw
f  8/12/4  4/11/4  3/10/4  5/9/4
usemtl chunksTextures/color_02
f  7/13/5  1/14/5  4/15/5  8/16/5
usemtl chunksTextures/dev_nodraw
f  8/4/6  5/3/6  6/2/6  7/1/6

o entity1_brush1
usemtl chunksTextures/color_03
f  9/17/1  10/18/1  11/19/1  12/20/1
usemtl chunksTextures/color_02
f  13/21/2  11/16/2  10/13/2  14/22/2
usemtl chunksTextures/dev_nodraw
f  14/23/3  10/24/3  9/12/3  15/25/3
usemtl chunksTextures/dev_nodraw
f  16/25/4  12/12/4  11/24/4  13/23/4
usemtl chunksTextures/color_02
f  15/22/5  9/13/5  12/16/5  16/21/5
usemtl chunksTextures/color_02
f  16/20/6  13/19/6  14/18/6  15/17/6

o entity1_brush2
usemtl chunksTextures/obj_scaffold_02
f  17/26/1  18/27/1  19/28/1  20/29/1
usemtl chunksTextures/obj_scaffold_02
f  21/30/2  19/31/2  18/32/2  22/33/2
usemtl chunksTextures/color_03
f  22/34/3  18/35/3  17/36/3  23/37/3
usemtl chunksTextures/color_02
f  24/37/4  20/36/4  19/35/4  21/34/4
usemtl chunksTextures/obj_scaffold_02
f  23/33/5  17/32/5  20/31/5  24/30/5
usemtl chunksTextures/obj_scaffold_02
f  24/29/6  21/28/6  22/27/6  23/26/6

o entity1_brush3
usemtl chunksTextures/obj_scaffold_02
f  25/38/1  26/39/1  27/40/1  28/41/1
usemtl chunksTextures/obj_scaffold_02
f  29/42/2  27/40/2  26/39/2  30/43/2
usemtl chunksTextures/color_02
f  30/44/3  26/45/3  25/46/3  31/47/3
usemtl chunksTextures/color_03
f  32/37/4  28/36/4  27/35/4  29/34/4
usemtl chunksTextures/obj_scaffold_02
f  31/43/5  25/39/5  28/40/5  32/42/5
usemtl chunksTextures/obj_scaffold_02
f  32/41/6  29/40/6  30/39/6  31/38/6

o entity1_brush4
usemtl chunksTextures/color_02
f  33/17/1  34/18/1  35/19/1  36/20/1
usemtl chunksTextures/color_02
f  37/15/2  35/48/2  34/49/2  38/14/2
usemtl chunksTextures/dev_nodraw
f  38/50/3  34/51/3  33/52/3  39/11/3
usemtl chunksTextures/dev_nodraw
f  40/11/4  36/52/4  35/51/4  37/50/4
usemtl chunksTextures/color_02
f  39/14/5  33/49/5  36/48/5  40/15/5
usemtl chunksTextures/color_03
f  40/20/6  37/19/6  38/18/6  39/17/6

