mtllib prop_desk_02.mtl
# vertices
v -64 40 -19
v -64 40 19
v -64 42 19
v -64 42 -19
v 64 42 19
v 64 40 19
v 64 40 -19
v 64 42 -19
v -59 38 -4
v -59 38 4
v -59 40 4
v -59 40 -4
v 59 40 4
v 59 38 4
v 59 38 -4
v 59 40 -4
v -61 8 -6
v -61 8 6
v -61 40 6
v -61 40 -6
v -59 40 6
v -59 8 6
v -59 8 -6
v -59 40 -6
v -61 0 -18
v -61 0 18
v -61 8 18
v -61 8 -18
v -59 8 18
v -59 0 18
v -59 0 -18
v -59 8 -18
v 59 8 -6
v 59 8 6
v 59 40 6
v 59 40 -6
v 61 40 6
v 61 8 6
v 61 8 -6
v 61 40 -6
v 59 0 -18
v 59 0 18
v 59 8 18
v 59 8 -18
v 61 8 18
v 61 0 18
v 61 0 -18
v 61 8 -18
v -59 14 -12
v -59 14 12
v -59 36 12
v -59 36 -12
v 59 36 12
v 59 14 12
v 59 14 -12
v 59 36 -12

# texture coordinates
vt 0.125 2
vt -1.0625 2
vt -1.0625 2.0625
vt 0.125 2.0625
vt 2.375 2.0625
vt -1.625 2.0625
vt -1.625 2
vt 2.375 2
vt 0.5 -0.23684211
vt -0.5 -0.23684211
vt -0.5 0.2631579
vt 0.5 0.2631579
vt -0.515625 0.09375
vt -0.640625 0.09375
vt -0.640625 0.125
vt -0.515625 0.125
vt 2.40625 1.25
vt -1.28125 1.25
vt -1.28125 1.1875
vt 2.40625 1.1875
vt 2.40625 -0.28125
vt -1.28125 -0.28125
vt -1.28125 -0.03125
vt 2.40625 -0.03125
vt 1.203125 -0.515625
vt -0.640625 -0.515625
vt -0.640625 -0.640625
vt 1.203125 -0.640625
vt -0.125 -0
vt -0.5 -0
vt -0.5 1
vt -0.125 1
vt -1 1
vt -1.0625 1
vt -1.0625 -0
vt -1 -0
vt 0 0.25
vt -0.03125 0.25
vt -0.03125 0.4375
vt 0 0.4375
vt -0.5 -0.0625
vt -0.53125 -0.0625
vt -0.53125 -0.25
vt -0.5 -0.25
vt 0 -0
vt 0 1
vt -0.4027778 1
vt -0.43055555 1
vt -0.43055555 -0
vt -0.4027778 -0
vt 1 -1.0625
vt 1 -1.125
vt -0.125 -1.125
vt -0.125 -1.0625
vt 2 1
vt 1.9375 1
vt 1.9375 -0
vt 2 -0
vt 1 0.25
vt 0.96875 0.25
vt 0.96875 0.4375
vt 1 0.4375
vt 1.5 -0.0625
vt 1.46875 -0.0625
vt 1.46875 -0.25
vt 1.5 -0.25
vt 1.5972222 1
vt 1.5694444 1
vt 1.5694444 -0
vt 1.5972222 -0
vt 1 1.9375
vt 1 1.875
vt -0.125 1.875
vt -0.125 1.9375
vt 0.125 0.375
vt 0.875 0.375
vt 0.875 1.0625
vt 0.125 1.0625
vt 1 2
vt 0 2
vt 1 1
vt -2.6875 0.875
vt 1 0.875
vt 1 0.125
vt -2.6875 0.125
vt -2.6875 0.375
vt 1 0.375
vt 1 1.0625
vt -2.6875 1.0625

# normals
vn -1 0 -0
vn 0 0 1
vn 0 -1 -0
vn 0 1 -0
vn 0 0 -1
vn 1 0 -0

o entity1_brush0
usemtl chunksTextures/prop_desk02_tableBorder
f  1/1/1  2/2/1  3/3/1  4/4/1
usemtl chunksTextures/prop_desk02_tableBorder
f  5/5/2  3/6/2  2/7/2  6/8/2
usemtl chunksTextures/prop_desk02_table
f  6/9/3  2/10/3  1/11/3  7/12/3
usemtl chunksTextures/prop_desk02_table
f  8/12/4  4/11/4  3/10/4  5/9/4
usemtl chunksTextures/prop_desk02_tableBorder
f  7/8/5  1/7/5  4/6/5  8/5/5
usemtl chunksTextures/prop_desk02_tableBorder
f  8/4/6  5/3/6  6/2/6  7/1/6

o entity1_brush1
usemtl chunksTextures/dev_nodraw
f  9/13/1  10/14/1  11/15/1  12/16/1
usemtl chunksTextures/prop_desk02_leg
f  13/17/2  11/18/2  10/19/2  14/20/2
usemtl chunksTextures/prop_desk02_leg
f  14/21/3  10/22/3  9/23/3  15/24/3
usemtl chunksTextures/dev_nodraw
f  16/25/4  12/26/4  11/27/4  13/28/4
usemtl chunksTextures/prop_desk02_leg
f  15/20/5  9/19/5  12/18/5  16/17/5
usemtl chunksTextures/dev_nodraw
f  16/16/6  13/15/6  14/14/6  15/13/6

o entity1_brush2
usemtl chunksTextures/prop_desk02_leg
f  17/29/1  18/30/1  19/31/1  20/32/1
usemtl chunksTextures/prop_desk02_leg
f  21/33/2  19/34/2  18/35/2  22/36/2
usemtl chunksTextures/dev_nodraw
f  22/37/3  18/38/3  17/39/3  23/40/3
usemtl chunksTextures/dev_nodraw
f  24/41/4  20/42/4  19/43/4  21/44/4
usemtl chunksTextures/prop_desk02_leg
f  23/36/5  17/35/5  20/34/5  24/33/5
usemtl chunksTextures/prop_desk02_leg
f  24/32/6  21/31/6  22/30/6  23/29/6

o entity1_brush3
usemtl chunksTextures/prop_desk02_base3
f  25/45/1  26/36/1  27/33/1  28/46/1
usemtl chunksTextures/prop_desk02_base
f  29/47/2  27/48/2  26/49/2  30/50/2
usemtl chunksTextures/prop_desk02_base2
f  30/51/3  26/52/3  25/53/3  31/54/3
usemtl chunksTextures/prop_desk02_base2
f  32/54/4  28/53/4  27/52/4  29/51/4
usemtl chunksTextures/prop_desk02_base
f  31/50/5  25/49/5  28/48/5  32/47/5
usemtl chunksTextures/prop_desk02_base3
f  32/46/6  29/33/6  30/36/6  31/45/6

o entity1_brush4
usemtl chunksTextures/prop_desk02_leg
f  33/29/1  34/30/1  35/31/1  36/32/1
usemtl chunksTextures/prop_desk02_leg
f  37/55/2  35/56/2  34/57/2  38/58/2
usemtl chunksTextures/dev_nodraw
f  38/59/3  34/60/3  33/61/3  39/62/3
usemtl chunksTextures/dev_nodraw
f  40/63/4  36/64/4  35/65/4  37/66/4
usemtl chunksTextures/prop_desk02_leg
f  39/58/5  33/57/5  36/56/5  40/55/5
usemtl chunksTextures/prop_desk02_leg
f  40/32/6  37/31/6  38/30/6  39/29/6

o entity1_brush5
usemtl chunksTextures/prop_desk02_base3
f  41/45/1  42/36/1  43/33/1  44/46/1
usemtl chunksTextures/prop_desk02_base
f  45/67/2  43/68/2  42/69/2  46/70/2
usemtl chunksTextures/prop_desk02_base2
f  46/71/3  42/72/3  41/73/3  47/74/3
usemtl chunksTextures/prop_desk02_base2
f  48/74/4  44/73/4  43/72/4  45/71/4
usemtl chunksTextures/prop_desk02_base
f  47/70/5  41/69/5  44/68/5  48/67/5
usemtl chunksTextures/prop_desk02_base3
f  48/46/6  45/33/6  46/36/6  47/45/6

o entity1_brush6
usemtl chunksTextures/prop_desk02_cabinet_ext
f  49/75/1  50/76/1  51/77/1  52/78/1
usemtl chunksTextures/prop_desk02_cabinet_front3
f  53/79/2  51/80/2  50/46/2  54/81/2
usemtl chunksTextures/prop_desk02_cabinet_ext
f  54/82/3  50/83/3  49/84/3  55/85/3
usemtl chunksTextures/prop_desk02_cabinet_ext
f  56/85/4  52/84/4  51/83/4  53/82/4
usemtl chunksTextures/prop_desk02_cabinet_ext
f  55/86/5  49/87/5  52/88/5  56/89/5
usemtl chunksTextures/prop_desk02_cabinet_ext
f  56/78/6  53/77/6  54/76/6  55/75/6

