mtllib prop_chair_02.mtl
# vertices
v -18 20 -3
v -18 20 3
v -18 36 3
v -18 36 -3
v -16 36 3
v -16 20 3
v -16 20 -3
v -16 36 -3
v -22 0 -16
v -22 0 -13.83333333331575
v -18 24 -3
v -18 20 -3
v -16 24 -3
v -16 20 -3
v -20 0 -13.833333333315752
v -20 0 -16
v -22 0 16
v -18 24 3
v -22 0 13.833333333334599
v -18 20 3
v -16 24 3
v -20 0 16
v -20 0 13.833333333334599
v -16 20 3
v -16 22 -3
v -16 22 3
v -16 24 3
v -16 24 -3
v 16 24 3
v 16 22 3
v 16 22 -3
v 16 24 -3
v 16 20 -3
v 16 20 3
v 16 36 3
v 16 36 -3
v 18 36 3
v 18 20 3
v 18 20 -3
v 18 36 -3
v 20 0 -13.833333333335759
v 16 20 -3
v 20 0 -16
v 16 24 -3
v 18 24 -3
v 18 20 -3
v 22 0 -13.833333333335759
v 22 0 -16
v 20 0 13.833333333379414
v 20 0 16
v 16 20 3
v 16 24 3
v 18 24 3
v 22 0 16
v 22 0 13.833333333379414
v 18 20 3
v -16 28 -16
v -16 28 -12
v -16 30 -14
v -16 30 -16
v 16 30 -14
v 16 28 -12
v 16 28 -16
v 16 30 -16
v -16 30 -16
v -16 30 -14
v -16 52 -14
v -16 52 -16
v -14.666666666666364 54.666666666667275 -14
v -14.666666666666364 54.666666666667275 -16
v -12 56 -14
v -12 56 -16
v 16 52 -14
v 14.666666666665506 54.666666666668974 -14
v 12 56 -14
v 16 30 -14
v 16 30 -16
v 12 56 -16
v 14.666666666665508 54.666666666668974 -16
v 16 52 -16
v -16 24 -12
v -16 24 8
v -16 28 8
v -16 28 -16
v 16 28 8
v 16 24 8
v 16 24 -12
v 16 28 -16
v 15 36.33333333333576 -6
v 15 36.33333333333576 6
v 15 38 6
v 15 38 -6
v 15.5 36 -6
v 15.5 36 6
v 19 38 6
v 18.49999999999999 36 6
v 19 36.33333333333294 6
v 18.49999999999999 36 -6
v 19 38 -6
v 19 36.33333333333294 -6
v -16 24 8
v -16 24 12
v -16 28 12
v -16 28 8
v -14.666666666663613 25 14.666666666667682
v -14.666666666665156 27.777777777777697 14.66666666666691
v -15 28 14
v -12 26 16
v -12 27.333333333333336 16
v 12 26 16
v 14.666666666667133 25 14.666666666667686
v 12 27.333333333333336 16
v 16 24 12
v 15 28 14
v 14.666666666666986 27.777777777777427 14.666666666667727
v 16 24 8
v 16 28 8
v 16 28 12
v -19 36.33333333333576 -6
v -19 36.33333333333576 6
v -19 38 6
v -19 38 -6
v -18.5 36 -6
v -18.5 36 6
v -15 38 6
v -15.499999999999998 36 6
v -15 36.333333333333336 6
v -15.499999999999998 36 -6
v -15 38 -6
v -15 36.333333333333336 -6

# texture coordinates
vt -0.65625 1.125
vt -0.84375 1.125
vt -0.84375 1.625
vt -0.65625 1.625
vt -0.875 1.625
vt -0.9375 1.625
vt -0.9375 1.125
vt -0.875 1.125
vt -0.875 -0.84375
vt -0.9375 -0.84375
vt -0.9375 -0.65625
vt -0.875 -0.65625
vt -0.4375 0.125
vt -0.5052084 0.125
vt -0.84375 0.875
vt -0.84375 0.75
vt -0.5052084 0.12499997
vt -0.875 0.875
vt -0.9375 0.875
vt -0.9375 0.75
vt -0.875 0.75
vt -0.8125 -0.90625
vt -0.875 -0.90625
vt -1 -0.28125
vt -0.9375 -0.28125
vt -0.9375 -0.41145834
vt -1 -0.41145834
vt -1 -0.34375
vt -0.9375 -0.34375
vt -1 -0.09375
vt -1.0625 -0.09375
vt -0.4375 0.12499997
vt -0.5052084 0.12500001
vt -0.4375 0.12500001
vt 0.56249994 0.125
vt 0.15624994 0.875
vt 0.4947916 0.125
vt 0.15624999 0.75
vt 0.49479163 0.12499997
vt 0.15624999 0.875
vt 1.0625 -0.84375
vt 1.125 -0.84375
vt 1.25 -0.09375
vt 1.1875 -0.09375
vt -0.875 -1.21875
vt -0.9375 -1.21875
vt -0.9375 -1.1510416
vt -0.875 -1.1510416
vt 1.25 -0.28125
vt 1.3125 -0.28125
vt 1.1875 -0.90625
vt 1.125 -0.90625
vt 1.0625 0.75
vt 1.125 0.75
vt 1.125 0.875
vt 1.0625 0.875
vt 0.15624996 0.75
vt 0.15624996 0.875
vt 0.56249994 0.12499997
vt 0.15624994 0.75
vt 0.56249994 0.12500001
vt 0.4947916 0.12500001
vt -0.84375 1.1875
vt -0.65625 1.1875
vt 0.0625 1.1875
vt -0.9375 1.1875
vt 0.0625 1.125
vt 0.0625 -0.84375
vt 0.0625 -0.65625
vt 0.125 1.625
vt 0.0625 1.625
vt 0.125 1.125
vt 0.125 -0.84375
vt 0.125 -0.65625
vt 0.125 0.875
vt 0.0625 0.875
vt 0.0625 0.75
vt 0.125 0.75
vt 0.1875 -0.90625
vt 0.125 -0.90625
vt 0.25 -0.28125
vt 0.3125 -0.28125
vt -0.9375 -0.15104163
vt -0.875 -0.15104163
vt -0.875 -0.21874997
vt -0.9375 -0.21874997
vt 0.25 -0.09375
vt 0.1875 -0.09375
vt 0 -0.09375
vt -0.0625 -0.09375
vt 0.375 -1.21875
vt 0.3125 -1.21875
vt 0.3125 -1.1510416
vt 0.375 -1.1510416
vt 0.5 0.625
vt 0.375 0.625
vt 0.4375 0.6875
vt 0.5 0.6875
vt 0.125 -0.3125
vt -0.875 -0.3125
vt -0.875 -0.25
vt 0.125 -0.25
vt 0.125 0.375
vt -0.875 0.375
vt -0.875 0.5
vt 0.125 0.5
vt -0.875 0.4375
vt 0.125 0.4375
vt 0.125 0.625
vt -0.875 0.625
vt -0.875 0.6875
vt 0.125 0.6875
vt 0.4375 1.375
vt 0.5 1.375
vt 0.4375 1.4583334
vt 0.5 1.4583334
vt -0.8333391 0.5
vt -0.8333391 0.4375
vt -0.7500057 0.4375
vt -0.7500057 0.5
vt 0.125 1.375
vt 0.08333334 1.4583334
vt 0 1.5
vt -0.75 1.5
vt -0.8333334 1.4583334
vt -0.875 1.375
vt 0 0.5
vt -0.75 0.5
vt -0.75 0.4375
vt 0 0.4375
vt 0.083339095 0.5
vt 5.751848e-06 0.5
vt 5.751848e-06 0.4375
vt 0.083339095 0.4375
vt 0.25 1.125
vt -0.375 1.125
vt -0.375 1.25
vt 0.375 1.25
vt 0.125 1.25
vt -0.875 1.25
vt 0.125 -0.375
vt -0.875 -0.375
vt -0.875 0.25
vt 0.125 0.25
vt 0.125 0.5625
vt -0.875 0.5625
vt -0.5625 1.1354166
vt -0.9375 1.1354166
vt -0.5625 1.1875
vt 0.015625 -0.5625
vt 0.015625 -0.9375
vt 0 -0.9375
vt 0 -0.5625
vt 0 1.1875
vt 0.125 1.1875
vt 0.125 1.1354166
vt 0.109375 1.125
vt 0.015625 1.125
vt 0 1.1354166
vt 0.109375 -0.9375
vt 0.109375 -0.5625
vt 0.125 -0.5625
vt 0.125 -0.9375
vt -0.5 1.125
vt -0.5 1.25
vt -1.2022591 1.3113098
vt -1.2022591 1.1863098
vt -1.2855924 1.2175598
vt -1.2855924 1.3043654
vt -1.2647591 1.3113098
vt -0.9641527 1.3501456
vt -0.9641527 1.26334
vt -0.8808193 1.29459
vt -0.8808193 1.3362567
vt 0 -0.6395416
vt -0.75 -0.6395416
vt -0.8333334 -0.59787494
vt 0.08333334 -0.59787494
vt 0 1.2291667
vt -0.75 1.2291667
vt -0.75 1.1875
vt 0.08333334 -0.5833333
vt -0.8333334 -0.5833333
vt -0.875 -0.49999997
vt 0.125 -0.49999997
vt 0.09375 -0.5625
vt -0.84375 -0.5625
vt -0.8333334 -0.5833334
vt -0.75 -0.625
vt 0 -0.625
vt 0.08333334 -0.5833334
vt 0.125 -0.5
vt -0.875 -0.5
vt 0.125 -0.37500003
vt -0.875 -0.37500003
vt 0.48333275 0.5868056
vt 0.3999994 0.5729167
vt 0.3999994 0.53125
vt 0.48333275 0.5
vt -0.5250015 0.625
vt -0.5875015 0.625
vt -0.60833484 0.6180556
vt -0.60833484 0.53125
vt -0.5250015 0.5
vt -0.984375 -0.5625
vt -0.984375 -0.9375
vt -1 -0.9375
vt -1 -0.5625
vt -0.890625 -0.9375
vt -0.890625 -0.5625

# normals
vn -1 0 -0
vn 0 0 1
vn 0 -1 -0
vn 0 1 -0
vn 0 0 -1
vn 1 0 -0
vn -0.9863939238321439 0.16439898730535735 -0
vn -0.9380964741394132 0 0.3463740827590904
vn -0 -0.47628314854083514 0.8792919665367294
vn 0 0.4762831485407526 -0.879291966536774
vn 0.95577900872195 0 -0.2940858488375231
vn 0.9805806756909202 -0.19611613513818404 -0
vn -0.9863939238321437 0.16439898730535724 -0
vn -0.9380964741393375 0 -0.34637408275929515
vn 0 0.4762831485407526 0.879291966536774
vn 0 -0.4762831485405876 -0.8792919665368634
vn 0.95577900872195 0 0.2940858488375231
vn -0.9805806756909202 -0.19611613513818404 0
vn -0.95577900872195 0 -0.2940858488375231
vn 0 -0.47628314854067655 0.8792919665368153
vn 0.9380964741393648 0 0.34637408275922166
vn 0.9863939238321437 0.1643989873053573 0
vn -0.9805806756909201 -0.19611613513818402 0
vn -0.95577900872195 0 0.2940858488375231
vn 0 -0.47628314854200987 -0.879291966536093
vn 0.9380964741397724 0 -0.3463740827581178
vn 0.9863939238321439 0.1643989873053573 0
vn 0 0.7071067811865475 0.7071067811865475
vn -0.8944271909999159 0.4472135954999579 -0
vn -0.4472135954999579 0.8944271909999159 -0
vn 0.4472135954999579 0.8944271909999159 -0
vn 0.8944271909999159 0.4472135954999579 -0
vn 0 -0.7071067811865475 -0.7071067811865475
vn -0.5547001962280232 -0.8320502943359809 0
vn 0.5547001962252264 -0.8320502943378455 -0
vn -0.8944271909996084 -3.728435293619443e-13 0.4472135955005729
vn -0.4472135954999887 -0 0.8944271909999005
vn -7.266914343005379e-17 -0.799999999999763 0.6000000000003162
vn -0 -0.936329177569092 0.35112344158826503
vn 0 0.9486832980505138 0.31622776601683794
vn 0.4472135954996222 0 0.8944271910000838
vn 0.8944271910000302 0 0.44721359549972944

o entity1_brush0
usemtl officeTextures/color_08
f  1/1/1  2/2/1  3/3/1  4/4/1
usemtl officeTextures/color_08
f  5/5/2  3/6/2  2/7/2  6/8/2
usemtl officeTextures/color_08
f  6/9/3  2/10/3  1/11/3  7/12/3
usemtl officeTextures/color_08
f  8/12/4  4/11/4  3/10/4  5/9/4
usemtl officeTextures/color_08
f  7/8/5  1/7/5  4/6/5  8/5/5
usemtl officeTextures/color_08
f  8/4/6  5/3/6  6/2/6  7/1/6

o entity1_brush1
usemtl officeTextures/color_08
f  9/13/7  10/14/7  11/15/7
usemtl officeTextures/color_08
f  12/16/8  11/15/8  10/17/8
usemtl officeTextures/color_08
f  13/18/2  11/19/2  12/20/2  14/21/2
usemtl officeTextures/color_08
f  14/22/9  12/23/9  10/24/9  15/25/9
usemtl officeTextures/color_08
f  15/26/3  10/27/3  9/28/3  16/29/3
usemtl officeTextures/color_08
f  16/30/10  9/31/10  11/10/10  13/9/10
usemtl officeTextures/color_08
f  16/32/11  13/15/11  14/16/11
usemtl officeTextures/color_08
f  15/33/12  16/34/12  14/16/12

o entity1_brush2
usemtl officeTextures/color_08
f  17/35/13  18/36/13  19/37/13
usemtl officeTextures/color_08
f  20/38/14  19/39/14  18/40/14
usemtl officeTextures/color_08
f  21/41/15  18/42/15  17/43/15  22/44/15
usemtl officeTextures/color_08
f  22/45/3  17/46/3  19/47/3  23/48/3
usemtl officeTextures/color_08
f  23/49/16  19/50/16  20/51/16  24/52/16
usemtl officeTextures/color_08
f  24/53/5  20/54/5  18/55/5  21/56/5
usemtl officeTextures/color_08
f  24/57/17  21/58/17  22/59/17
usemtl officeTextures/color_08
f  24/60/12  22/61/12  23/62/12

o entity1_brush3
usemtl officeTextures/color_08
f  25/1/1  26/2/1  27/63/1  28/64/1
usemtl officeTextures/color_08
f  29/65/2  27/66/2  26/7/2  30/67/2
usemtl officeTextures/color_08
f  30/68/3  26/10/3  25/11/3  31/69/3
usemtl officeTextures/color_08
f  32/69/4  28/11/4  27/10/4  29/68/4
usemtl officeTextures/color_08
f  31/67/5  25/7/5  28/66/5  32/65/5
usemtl officeTextures/color_08
f  32/64/6  29/63/6  30/2/6  31/1/6

o entity1_brush4
usemtl officeTextures/color_08
f  33/1/1  34/2/1  35/3/1  36/4/1
usemtl officeTextures/color_08
f  37/70/2  35/71/2  34/67/2  38/72/2
usemtl officeTextures/color_08
f  38/73/3  34/68/3  33/69/3  39/74/3
usemtl officeTextures/color_08
f  40/74/4  36/69/4  35/68/4  37/73/4
usemtl officeTextures/color_08
f  39/72/5  33/67/5  36/71/5  40/70/5
usemtl officeTextures/color_08
f  40/4/6  37/3/6  38/2/6  39/1/6

o entity1_brush5
usemtl officeTextures/color_08
f  41/33/18  42/16/18  43/34/18
usemtl officeTextures/color_08
f  43/32/19  42/16/19  44/15/19
usemtl officeTextures/color_08
f  45/75/2  44/76/2  42/77/2  46/78/2
usemtl officeTextures/color_08
f  46/79/20  42/80/20  41/81/20  47/82/20
usemtl officeTextures/color_08
f  47/83/3  41/84/3  43/85/3  48/86/3
usemtl officeTextures/color_08
f  48/87/10  43/88/10  44/68/10  45/73/10
usemtl officeTextures/color_08
f  45/15/21  46/16/21  47/17/21
usemtl officeTextures/color_08
f  48/13/22  45/15/22  47/14/22

o entity1_brush6
usemtl officeTextures/color_08
f  49/62/23  50/61/23  51/60/23
usemtl officeTextures/color_08
f  51/57/24  50/59/24  52/58/24
usemtl officeTextures/color_08
f  53/68/15  52/73/15  50/89/15  54/90/15
usemtl officeTextures/color_08
f  54/91/3  50/92/3  49/93/3  55/94/3
usemtl officeTextures/color_08
f  55/24/25  49/25/25  51/22/25  56/23/25
usemtl officeTextures/color_08
f  56/77/5  51/78/5  52/75/5  53/76/5
usemtl officeTextures/color_08
f  55/39/26  56/38/26  53/40/26
usemtl officeTextures/color_08
f  54/35/27  55/37/27  53/36/27

o entity1_brush7
usemtl officeTextures/color_08
f  57/95/1  58/96/1  59/97/1  60/98/1
usemtl officeTextures/color_08
f  61/99/28  59/100/28  58/101/28  62/102/28
usemtl officeTextures/color_08
f  62/103/3  58/104/3  57/105/3  63/106/3
usemtl officeTextures/color_08
f  64/106/4  60/105/4  59/107/4  61/108/4
usemtl officeTextures/color_08
f  63/109/5  57/110/5  60/111/5  64/112/5
usemtl officeTextures/color_08
f  64/98/6  61/97/6  62/96/6  63/95/6

o entity1_brush8
usemtl officeTextures/color_08
f  65/98/1  66/97/1  67/113/1  68/114/1
usemtl officeTextures/color_08
f  68/114/29  67/113/29  69/115/29  70/116/29
usemtl officeTextures/color_08
f  70/117/30  69/118/30  71/119/30  72/120/30
usemtl officeTextures/color_08
f  73/121/2  74/122/2  75/123/2  71/124/2  69/125/2  67/126/2  66/111/2  76/112/2
usemtl officeTextures/color_08
f  76/108/3  66/107/3  65/105/3  77/106/3
usemtl officeTextures/color_08
f  78/127/4  72/128/4  71/129/4  75/130/4
usemtl officeTextures/color_08
f  77/112/5  65/111/5  68/126/5  70/125/5  72/124/5  78/123/5  79/122/5  80/121/5
usemtl officeTextures/color_08
f  79/131/31  78/132/31  75/133/31  74/134/31
usemtl officeTextures/color_08
f  80/114/32  79/116/32  74/115/32  73/113/32
usemtl officeTextures/color_08
f  77/98/6  80/114/6  73/113/6  76/97/6

o entity1_brush9
usemtl officeTextures/color_08
f  81/135/1  82/136/1  83/137/1  84/138/1
usemtl officeTextures/color_08
f  85/139/2  83/140/2  82/8/2  86/72/2
usemtl officeTextures/color_08
f  86/141/3  82/142/3  81/143/3  87/144/3
usemtl officeTextures/color_08
f  88/103/4  84/104/4  83/142/4  85/141/4
usemtl officeTextures/color_08
f  87/145/33  81/146/33  84/107/33  88/108/33
usemtl officeTextures/color_08
f  88/138/6  85/137/6  86/136/6  87/135/6

o entity1_brush10
usemtl officeTextures/color_08
f  89/147/1  90/148/1  91/66/1  92/149/1
usemtl officeTextures/color_08
f  93/150/34  94/151/34  90/152/34  89/153/34
usemtl officeTextures/color_08
f  95/154/2  91/155/2  90/156/2  94/157/2  96/158/2  97/159/2
usemtl officeTextures/color_08
f  96/160/3  94/151/3  93/150/3  98/161/3
usemtl officeTextures/color_08
f  99/153/4  92/162/4  91/163/4  95/152/4
usemtl officeTextures/color_08
f  100/159/5  98/158/5  93/157/5  89/156/5  92/155/5  99/154/5
usemtl officeTextures/color_08
f  97/152/35  96/151/35  98/150/35  100/153/35
usemtl officeTextures/color_08
f  95/66/6  97/148/6  100/147/6  99/149/6

o entity1_brush11
usemtl officeTextures/color_08
f  101/136/1  102/164/1  103/165/1  104/137/1
usemtl officeTextures/color_08
f  103/166/36  102/167/36  105/168/36  106/169/36  107/170/36
usemtl officeTextures/color_08
f  106/171/37  105/172/37  108/173/37  109/174/37
usemtl officeTextures/color_08
f  110/175/38  108/176/38  105/177/38  111/178/38
usemtl officeTextures/color_08
f  112/179/2  109/180/2  108/181/2  110/154/2
usemtl officeTextures/color_08
f  111/182/39  105/183/39  102/184/39  113/185/39
usemtl officeTextures/color_08
f  114/186/40  107/187/40  106/188/40  109/189/40  112/190/40  115/191/40
usemtl officeTextures/color_08
f  113/192/3  102/193/3  101/142/3  116/141/3
usemtl officeTextures/color_08
f  117/194/4  104/195/4  103/193/4  107/187/4  114/186/4  118/192/4
usemtl officeTextures/color_08
f  116/72/5  101/8/5  104/140/5  117/139/5
usemtl officeTextures/color_08
f  115/196/41  112/197/41  110/198/41  111/199/41
usemtl officeTextures/color_08
f  118/200/42  114/201/42  115/202/42  111/203/42  113/204/42
usemtl officeTextures/color_08
f  116/136/6  117/137/6  118/165/6  113/164/6

o entity1_brush12
usemtl officeTextures/color_08
f  119/147/1  120/148/1  121/66/1  122/149/1
usemtl officeTextures/color_08
f  123/205/34  124/206/34  120/207/34  119/208/34
usemtl officeTextures/color_08
f  125/154/2  121/155/2  120/156/2  124/157/2  126/158/2  127/159/2
usemtl officeTextures/color_08
f  126/209/3  124/206/3  123/205/3  128/210/3
usemtl officeTextures/color_08
f  129/153/4  122/162/4  121/163/4  125/152/4
usemtl officeTextures/color_08
f  130/159/5  128/158/5  123/157/5  119/156/5  122/155/5  129/154/5
usemtl officeTextures/color_08
f  127/152/35  126/151/35  128/150/35  130/153/35
usemtl officeTextures/color_08
f  125/66/6  127/148/6  130/147/6  129/149/6

